<?xml version="1.0" encoding="UTF-8" standalone="no"?>
<!-- Created with Inkscape (http://www.inkscape.org/) -->

<svg
   xmlns:dc="http://purl.org/dc/elements/1.1/"
   xmlns:cc="http://creativecommons.org/ns#"
   xmlns:rdf="http://www.w3.org/1999/02/22-rdf-syntax-ns#"
   xmlns:svg="http://www.w3.org/2000/svg"
   xmlns="http://www.w3.org/2000/svg"
   xmlns:xlink="http://www.w3.org/1999/xlink"
   xmlns:sodipodi="http://sodipodi.sourceforge.net/DTD/sodipodi-0.dtd"
   xmlns:inkscape="http://www.inkscape.org/namespaces/inkscape"
   width="128"
   height="128"
   viewBox="0 0 128 128"
   id="svg2"
   version="1.1"
   inkscape:version="0.91 r"
   sodipodi:docname="icon.svg">
  <defs
     id="defs4">
    <linearGradient
       inkscape:collect="always"
       id="linearGradient4269">
      <stop
         style="stop-color:#ff1b1b;stop-opacity:1"
         offset="0"
         id="stop4271" />
      <stop
         style="stop-color:#7a1e58;stop-opacity:1"
         offset="1"
         id="stop4273" />
    </linearGradient>
    <radialGradient
       inkscape:collect="always"
       xlink:href="#linearGradient4269"
       id="radialGradient4275"
       cx="-1029.8524"
       cy="-663.44226"
       fx="-1029.8524"
       fy="-663.44226"
       r="572.33344"
       gradientTransform="matrix(0.05418019,-0.05418019,0.05905431,0.05905431,162.22017,970.24453)"
       gradientUnits="userSpaceOnUse" />
  </defs>
  <sodipodi:namedview
     id="base"
     pagecolor="#ffffff"
     bordercolor="#666666"
     borderopacity="1.0"
     inkscape:pageopacity="0.0"
     inkscape:pageshadow="2"
     inkscape:zoom="2.8"
     inkscape:cx="64.676723"
     inkscape:cy="70.267427"
     inkscape:document-units="px"
     inkscape:current-layer="layer1"
     showgrid="false"
     inkscape:window-width="1920"
     inkscape:window-height="1032"
     inkscape:window-x="0"
     inkscape:window-y="24"
     inkscape:window-maximized="1"
     units="px" />
  <metadata
     id="metadata7">
    <rdf:RDF>
      <cc:Work
         rdf:about="">
        <dc:format>image/svg+xml</dc:format>
        <dc:type
           rdf:resource="http://purl.org/dc/dcmitype/StillImage" />
        <dc:title></dc:title>
      </cc:Work>
    </rdf:RDF>
  </metadata>
  <g
     inkscape:label="Layer 1"
     inkscape:groupmode="layer"
     id="layer1"
     transform="translate(0,-924.36216)">
    <path
       sodipodi:nodetypes="ccccc"
       inkscape:connector-curvature="0"
       id="path4277"
       d="M 11.74876,991.49237 70.259337,944.90631 120.81831,992.66828 72.473717,1048.74 Z"
       style="color:#000000;clip-rule:nonzero;display:inline;overflow:visible;visibility:visible;opacity:0.42;isolation:auto;mix-blend-mode:normal;color-interpolation:sRGB;color-interpolation-filters:linearRGB;solid-color:#000000;solid-opacity:1;fill:#000000;fill-opacity:1;fill-rule:nonzero;stroke:#000000;stroke-width:5;stroke-linecap:butt;stroke-linejoin:miter;stroke-miterlimit:4;stroke-dasharray:none;stroke-dashoffset:0;stroke-opacity:1;marker:none;color-rendering:auto;image-rendering:auto;shape-rendering:auto;text-rendering:auto;enable-background:accumulate" />
    <path
       style="color:#000000;clip-rule:nonzero;display:inline;overflow:visible;visibility:visible;opacity:1;isolation:auto;mix-blend-mode:normal;color-interpolation:sRGB;color-interpolation-filters:linearRGB;solid-color:#000000;solid-opacity:1;fill:url(#radialGradient4275);fill-opacity:1;fill-rule:nonzero;stroke:#ffffff;stroke-width:5;stroke-linecap:butt;stroke-linejoin:miter;stroke-miterlimit:4;stroke-dasharray:none;stroke-dashoffset:0;stroke-opacity:1;marker:none;color-rendering:auto;image-rendering:auto;shape-rendering:auto;text-rendering:auto;enable-background:accumulate"
       d="m 10.886691,984.42649 58.510577,-46.58606 50.558972,47.76197 -48.344592,56.0717 z"
       id="rect4247"
       inkscape:connector-curvature="0"
       sodipodi:nodetypes="ccccc" />
    <path
       style="color:#000000;clip-rule:nonzero;display:inline;overflow:visible;visibility:visible;opacity:1;isolation:auto;mix-blend-mode:normal;color-interpolation:sRGB;color-interpolation-filters:linearRGB;solid-color:#000000;solid-opacity:1;fill:none;fill-opacity:1;fill-rule:nonzero;stroke:#000000;stroke-width:3.21813941;stroke-linecap:butt;stroke-linejoin:miter;stroke-miterlimit:4;stroke-dasharray:none;stroke-dashoffset:0;stroke-opacity:0.50931672;marker:none;color-rendering:auto;image-rendering:auto;shape-rendering:auto;text-rendering:auto;enable-background:accumulate"
       id="path4172"
       d="m 100.69507,959.3957 c -1.511272,-0.34334 -3.004122,-0.78126 -4.533812,-1.03001 -1.92937,-0.31375 -3.90254,-0.89509 -5.46184,0.6259 -0.35547,0.34672 -0.29277,0.96493 -0.57224,1.37539 -1.72271,2.5301 -2.02696,1.93955 -5.31315,3.03593 -2.77268,0.81022 -5.58729,1.02377 -7.24221,3.89364 -1.03227,1.79011 0.12138,6.00074 0.42111,7.54306 1.57241,8.09096 0.27483,0.88065 1.40396,7.29292 0.23034,0.32592 0.38935,0.71648 0.69103,0.97776 0.11952,0.10351 0.32213,0.0768 0.47335,0.0307 0.8701,-0.26558 1.64713,-0.92864 2.55646,-0.95544 8.99142,-0.26502 -1.14203,2.22852 9.00255,1.06036 1.61732,-0.18623 3.11857,-0.93601 4.67786,-1.40401 1.28339,-0.367 2.71694,-0.39561 3.850172,-1.10099 1.17957,-0.73422 1.77394,-2.15788 2.83205,-3.05835 0.90586,-0.77091 2.06366,-1.19572 3.01137,-1.91455 0.87917,-0.66685 1.60977,-1.51087 2.44911,-2.22719 2.55831,-2.18332 1.45123,-0.64817 2.71726,-2.79629 -0.43832,-1.68619 -0.55273,-2.74294 -1.73814,-4.21243 -0.65098,-0.80698 -1.56973,-1.35748 -2.30545,-2.08802 -1.54403,-1.53317 -2.50439,-3.08823 -4.4393,-4.20612 -0.88451,-0.51101 -1.91141,-0.72142 -2.86711,-1.08214 -2.126592,-0.78903 -3.657122,-1.59573 -6.011142,-1.49579 -1.07219,0.0455 -2.10029,0.44321 -3.14433,0.69154 -1.73957,0.41377 -3.79556,0.90487 -5.42873,1.68695 -0.8162,0.39085 -1.55307,0.92941 -2.3296,1.39411 -1.85959,1.33069 -2.96335,1.8002 -4.09174,3.91083 -0.53426,0.99931 -0.78386,2.12713 -1.13177,3.20556 -0.34925,1.08257 -0.86272,2.1416 -0.95896,3.27503 -0.1436,1.69117 0.69516,4.04586 1.17046,5.65171 0.65559,0.49264 1.24542,1.0879 1.96679,1.47794 2.77721,1.50163 6.86531,1.69142 9.9185,1.72606 1.45592,0.0165 2.91245,-0.20824 4.36619,-0.12695 1.38848,0.0776 2.75221,0.40126 4.12831,0.6019 4.059572,-0.81254 3.157112,-0.48054 6.747992,-1.71801 1.97228,-0.67968 2.01973,-0.42721 3.13685,-1.86591 0.27295,-0.35152 0.61698,-0.69542 0.7102,-1.13061 0.0952,-0.44423 -0.11904,-0.90079 -0.17856,-1.35118 -0.15357,-0.60224 -0.18913,-1.24767 -0.46071,-1.8067 -0.51953,-1.06941 -3.14064,-4.41825 -3.70984,-5.09615 -0.88865,-1.05836 -1.69675,-2.21479 -2.77203,-3.08288 -1.45934,-1.17814 -5.129062,-2.809 -6.900992,-3.64806 -0.90274,-0.22049 -1.77894,-0.66361 -2.70822,-0.66146 -0.81303,0.002 -1.56408,0.44479 -2.34439,0.67316 -0.66221,0.19382 -1.31806,0.40954 -1.9831,0.59339 -0.64441,0.17816 -1.30878,0.28496 -1.94437,0.4924 -1.5647,0.51067 -1.96332,0.82339 -3.36431,1.61307 -1.08376,2.54506 -1.67642,5.1987 -1.88644,7.95585 -0.0886,1.16348 -0.16852,2.33557 -0.086,3.4995 0.0719,1.01484 0.0882,2.09467 0.54702,3.00274 0.37345,0.7392 1.21527,1.12545 1.82291,1.68818 0.60835,0.4663 1.07456,1.24299 1.82504,1.39892 1.10194,0.22895 2.23589,-0.29701 3.3611,-0.32139 1.18865,-0.0258 2.37511,0.11425 3.56268,0.17138 1.18463,-0.14593 2.36129,-0.3897 3.55392,-0.43779 1.0338,-0.0417 2.07718,0.33001 3.0993,0.16953 0.97397,-0.15293 1.833562,-0.72535 2.750342,-1.08802 0.78663,-0.52866 1.61999,-0.99369 2.35989,-1.58599 1.75036,-1.40119 3.49643,-3.5835 2.70694,-6.00463 -0.58942,-1.8076 -2.74962,-3.88422 -3.8783,-5.15377 -2.841112,-3.9559 -2.00427,-3.16235 -5.488242,-6.54216 -0.8293,-0.80451 -1.51413,-1.85067 -2.56453,-2.33196 -0.8242,-0.37765 -4.40355,-0.13484 -5.30817,0.24914 -0.91998,0.3905 -1.64772,1.13156 -2.47158,1.69734 -3.18272,0.89603 -2.27285,0.39145 -5.04585,2.14552 -0.69243,0.438 -1.54498,0.72467 -2.03127,1.38408 -0.50723,0.6878 -0.51445,1.63009 -0.78853,2.43956 -1.67428,4.9448 -1.26615,2.09098 -1.05653,7.70253 0.6672,1.59029 1.7863,5.02847 3.39361,6.24378 1.66469,1.2587 4.65852,1.19991 6.51325,1.12327 1.36713,-0.0565 2.72172,-0.28544 4.08414,-0.41204 1.42022,-0.13198 2.84236,-0.24245 4.26354,-0.36367 3.67049,-0.78412 4.421962,-0.76455 7.820022,-2.16021 1.07261,-0.44055 2.26575,-0.74387 3.13107,-1.51574 0.6537,-0.5831 2.1926,-4.07649 2.28468,-5.03171 0.0704,-0.73066 -0.27012,-1.44303 -0.40518,-2.16453 -0.3492,-0.70195 -0.63082,-1.44179 -1.04762,-2.10584 -0.53676,-0.85516 -1.15848,-1.65666 -1.80222,-2.43449 -1.68187,-2.03219 -3.42924,-3.99364 -5.86699,-5.17891 -3.203272,-1.55749 -4.739112,-1.19638 -8.153562,-1.22745 -3.8341,1.33934 -7.30092,2.83867 -10.28491,5.67272 -0.68925,0.65462 -1.35376,1.36032 -1.84639,2.17327 -1.90623,3.14571 -1.75209,4.51862 -2.43119,8.26381 1.52308,7.60802 0.42146,3.8986 3.31144,11.1263 0.0226,0.0417 -0.5671,0.361 -0.58968,0.31931 l 0,0 c -4.48898,-7.05182 -2.94584,-3.2526 -4.6526,-11.38824 0.37953,-1.74216 0.73692,-3.4893 1.1386,-5.2265 0.32034,-1.38538 0.33352,-2.89906 1.02725,-4.14029 0.72018,-1.28854 1.93999,-2.24188 3.07039,-3.19121 0.98282,-0.82539 2.1238,-1.44464 3.22822,-2.09845 4.37681,-2.59105 3.29465,-1.93214 8.28318,-3.32947 1.5666,-0.007 3.15676,-0.29304 4.69979,-0.0222 2.868062,0.50341 5.782502,2.24114 7.881632,4.19756 0.95243,0.88768 1.64942,2.01489 2.46923,3.02634 0.69225,0.85407 1.51764,1.61784 2.06691,2.57019 0.46978,0.81454 0.63186,1.77127 0.9478,2.6569 0.19078,0.89912 0.6323,1.78018 0.57234,2.69737 -0.0677,1.03604 -0.44558,2.05718 -0.94273,2.96867 -1.52189,2.79022 -3.0378,3.96539 -5.77694,5.4711 -1.27436,0.70052 -2.55369,1.51912 -3.98521,1.77503 -1.390422,0.24856 -2.817492,-0.20474 -4.226242,-0.30711 -4.43471,0.94412 -8.07534,2.06766 -12.63425,0.90017 -1.24968,-0.32003 -2.59266,-0.61689 -3.59804,-1.42518 -1.70519,-1.37093 -3.00185,-5.41781 -3.71192,-7.19466 0.28297,-4.19889 0.20622,-8.32638 2.93506,-11.8442 0.58721,-0.757 1.34515,-1.41878 2.20226,-1.84685 7.25535,-3.62364 -2.39121,3.35284 5.02054,-2.45105 2.97703,-0.91302 6.1461,-2.21524 9.2841,-1.00906 3.41958,1.31441 3.65516,2.73546 5.928232,5.46591 0.93234,1.11993 1.93058,2.18331 2.89587,3.27496 0.62534,1.16342 1.18326,2.36567 1.876,3.49025 0.59206,0.96114 1.59053,1.69126 1.97059,2.75422 0.328,0.91733 0.23171,1.96325 0.059,2.92203 -0.70673,3.92282 -3.41229,4.96549 -6.69694,6.31871 -0.99756,0.56431 -1.880882,1.4146 -2.992672,1.69293 -1.02998,0.25786 -2.12077,-0.1845 -3.18187,-0.14713 -6.09525,0.21462 -1.09002,0.69445 -7.40331,0.42976 -1.22183,-0.0512 -2.49161,0.0314 -3.65134,-0.3566 -0.98746,-0.33035 -1.73213,-1.1561 -2.59819,-1.73415 -0.83411,-1.3676 -2.60469,-3.98469 -2.79011,-5.58506 -0.14315,-1.23553 0.39051,-2.45868 0.50179,-3.69749 0.10729,-1.19449 -0.0637,-2.41511 0.15321,-3.59464 0.49614,-2.69852 1.28128,-3.32754 2.79451,-5.45458 2.65173,-1.92599 0.74755,-0.77659 3.62457,-1.98528 0.65741,-0.27619 1.25571,-0.70742 1.94464,-0.89141 0.7206,-0.19246 1.49323,-0.086 2.22649,-0.22258 0.90372,-0.16835 1.75147,-0.65842 2.67021,-0.68959 1.06104,-0.036 2.09779,0.32813 3.14668,0.4922 2.91061,1.28916 4.820582,1.93054 7.390972,3.97769 2.88043,2.29407 3.35936,3.43108 5.23382,6.39631 1.96972,3.11593 1.48447,1.64231 1.85555,4.75798 -0.0578,0.76266 -0.0922,2.71903 -0.59669,3.40716 -0.49434,0.67429 -1.26538,1.09479 -1.9305,1.60139 -0.75347,0.5739 -1.45366,1.25949 -2.32203,1.63766 -0.93578,0.40752 -6.540662,1.43056 -7.230652,1.56446 -1.4339,-0.0759 -2.86598,-0.20505 -4.30172,-0.22774 -3.37487,-0.0533 -5.30741,0.38627 -8.63313,-0.2934 -1.27797,-0.26118 -5.13132,-1.75304 -6.35065,-2.52831 -0.84427,-0.53679 -1.52802,-1.29184 -2.29203,-1.93775 -0.68386,-2.2823 -1.35785,-3.9351 -1.31101,-6.39724 0.0602,-3.16681 0.68032,-4.36413 2.32583,-7.01157 0.7039,-1.13249 1.40179,-2.29348 2.32663,-3.25403 0.7217,-0.74958 1.69718,-1.20435 2.54576,-1.80652 0.8397,-0.61032 1.57196,-1.40611 2.5191,-1.83095 0.36854,-0.16532 5.62073,-1.0607 5.89532,-1.11231 1.11914,-0.21037 2.21329,-0.7158 3.35089,-0.66489 2.24338,0.10039 4.18963,2.04643 6.593252,1.3837 0.89844,0.59992 1.77186,1.23913 2.69534,1.79977 0.94174,0.57173 2.03949,0.90032 2.8952,1.59424 0.85689,0.69486 1.43259,1.67821 2.16147,2.50634 0.72799,0.82713 1.53344,1.58868 2.20893,2.45921 0.64362,0.82943 1.43906,1.62036 1.73769,2.62686 0.24614,0.82958 -0.12676,1.72599 -0.19014,2.589 -0.93523,1.83832 -1.2836,2.93541 -2.91422,4.35449 -0.78656,0.68453 -1.82331,1.03543 -2.62264,1.70501 -0.98536,0.82542 -1.6648,1.99117 -2.69977,2.75346 -2.34,1.72348 -5.441932,2.22435 -7.664442,4.15575 -1.63879,0.32282 -3.24774,0.89383 -4.91634,0.96846 -1.6464,0.0736 -3.27467,-0.37779 -4.91579,-0.52869 -1.35123,-0.12425 -2.70694,-0.1938 -4.05996,-0.29665 -0.83199,-0.0632 -1.66184,-0.15667 -2.49501,-0.20162 -0.5603,-0.0302 -1.22617,0.30179 -1.68315,-0.0238 -0.3797,-0.27052 -0.1833,-0.91422 -0.27494,-1.37133 -2.03407,-3.55811 -1.64088,-2.3876 -2.83103,-7.16982 -0.42544,-1.7095 -1.34401,-3.42489 -1.09897,-5.16941 0.34816,-2.47885 3.77237,-6.3018 5.95256,-7.39132 1.24577,-0.62256 2.73265,-0.53917 4.09898,-0.80876 0.80856,-0.2524 1.68609,-0.34431 2.42568,-0.75722 1.25897,-0.70287 2.33659,-2.8446 3.2863,-3.67695 0.77041,-0.6752 1.59664,-1.4831 2.61193,-1.61943 1.71894,-0.23081 7.134742,1.79906 8.441212,2.23409 0.0848,0.0458 -0.56278,1.24469 -0.64756,1.1989 z"
       inkscape:connector-curvature="0" />
    <path
       style="color:#000000;clip-rule:nonzero;display:inline;overflow:visible;visibility:visible;opacity:1;isolation:auto;mix-blend-mode:normal;color-interpolation:sRGB;color-interpolation-filters:linearRGB;solid-color:#000000;solid-opacity:1;fill:none;fill-opacity:1;fill-rule:nonzero;stroke:#000000;stroke-width:3.21813941;stroke-linecap:butt;stroke-linejoin:miter;stroke-miterlimit:4;stroke-dasharray:none;stroke-dashoffset:0;stroke-opacity:0.50931672;marker:none;color-rendering:auto;image-rendering:auto;shape-rendering:auto;text-rendering:auto;enable-background:accumulate"
       id="path4174"
       d="m 78.213508,949.1967 c -3.31436,3.61697 0.12571,-0.35951 -2.51522,3.349 -0.22575,0.317 -0.55826,0.5447 -0.80471,0.84589 -0.58562,0.7157 0.0438,0.40605 -0.80563,1.27677 -0.41245,0.4228 -0.90615,0.75787 -1.35924,1.1368 -0.50525,0.56266 -1.04996,1.09225 -1.51574,1.68799 -0.45504,0.58199 -0.81442,1.23307 -1.24016,1.83683 -0.63141,0.95268 -1.39977,1.80442 -2.05827,2.73679 -0.37542,0.53158 -0.71853,1.08527 -1.0778,1.6279 -0.5264,0.74059 -1.05281,1.48119 -1.57922,2.22178 -1.79307,2.65022 -4.08384,4.91533 -5.87845,7.56344 -0.38974,0.57511 -0.61722,1.25709 -1.05083,1.7999 -2.99516,3.74938 -0.005,-1.20786 -2.21098,2.71936 -0.51134,1.74524 -1.66835,3.13642 -2.64751,4.62815 -0.24753,0.3771 -0.53034,0.73484 -0.73094,1.13887 -0.1589,0.32005 -0.2246,0.67845 -0.33935,1.01685 -0.11447,0.3376 -0.2322,0.67409 -0.3483,1.01114 -0.63166,1.07248 -1.74507,1.56663 -2.24526,2.73217 -0.0989,0.23038 -0.0519,0.50598 -0.1486,0.73727 -0.45291,0.59786 -0.2908,0.28523 -0.5166,0.92157 -0.0989,0.1502 -0.16947,0.32358 -0.29682,0.45059 -0.12595,0.12562 -0.31443,0.17289 -0.4471,0.2914 -0.0771,0.0689 -0.29222,0.39512 -0.32309,0.53047 -0.0215,0.0943 0.0484,0.21365 -0.011,0.28994 -0.115,0.14755 -0.30838,0.21185 -0.46258,0.31778 -0.0386,0.18175 -0.0266,0.38222 -0.11564,0.54527 -0.0774,0.14175 -0.22888,0.22997 -0.35968,0.32475 -0.0761,0.0552 -0.18672,0.18532 -0.25493,0.12063 -0.27264,-0.25857 -0.66509,-1.93746 -0.0123,0.33288 0.37595,0.0799 -0.34795,0.0512 -0.30976,-0.046 0.0204,-0.0517 0.12625,-0.0823 0.1017,-0.13224 -0.0792,-0.16099 -0.29158,-0.56266 -0.36254,-0.39786 -0.8942,2.07706 0.68649,0.83285 -0.48775,1.62389 -0.49438,0.0125 -0.53797,-0.30418 -0.65923,-0.80695 -0.007,-0.0294 0.0818,-0.02 0.0903,0.009 0.101,0.34428 0.26628,0.6974 0.22132,1.05336 -0.0281,0.22239 -0.28046,0.34977 -0.42068,0.52466 -0.1662,0.17959 -0.28095,0.42695 -0.49859,0.53878 -0.36246,0.18624 -0.56689,-0.51305 -0.47083,-1.00428 0.0195,-0.0999 0.25415,-0.008 0.29276,0.0865 0.41396,1.00948 -0.18036,1.3459 0.48005,0.80958 -0.0863,-0.26212 -0.37074,-0.53398 -0.25907,-0.78635 0.0905,-0.2045 0.44396,-0.0624 0.66008,-0.1199 2.33657,-0.62114 -0.56428,-0.15692 1.75885,0.007 0.29779,0.021 0.5822,-0.13799 0.87858,-0.17367 0.39437,-0.0475 0.79286,-0.0502 1.18928,-0.0752 0.70595,-0.22013 3.66982,-1.1546 4.15839,-1.25522 0.91292,-0.18802 1.84189,-0.3172 2.773,-0.35973 0.96888,-0.0443 1.94099,0.17579 2.90792,0.10024 5.73409,-0.44799 0.23329,-0.95247 5.625,-0.1664 1.62792,-0.11216 3.2343,0.2416 4.8548,0.26516 0.77358,0.0113 1.55484,-0.22994 2.31855,-0.10626 0.78968,0.12788 1.4604,0.69486 2.24607,0.84546 0.85308,0.16353 1.74095,-0.01 2.60447,0.0843 0.85056,0.0925 1.68183,0.31544 2.52274,0.47315 0.81943,0.023 1.64354,-0.0214 2.45828,0.069 0.70921,0.0787 1.38622,0.36033 2.0957,0.43648 1.85097,0.19867 2.10471,-0.11771 3.9236,-0.18817 1.84922,-0.0716 1.67316,0.0128 3.38177,0.47017 0.47472,-0.0531 0.95985,-0.047 1.42416,-0.15926 0.45375,-0.1097 0.86791,-0.34473 1.30774,-0.50119 1.3177,-0.46875 1.65949,-0.55498 3.05519,-0.87112 0.55093,-0.12479 1.09395,-0.35051 1.65883,-0.34662 0.49409,0.003 0.95728,0.2453 1.43592,0.36794 0.690212,0.0611 1.376542,-0.0678 2.065232,-0.0614 0.30483,0.003 0.60822,0.068 0.91283,0.056 0.41551,-0.0164 0.8239,-0.15376 1.23952,-0.14071 0.48244,0.0152 0.95333,0.15185 1.43049,0.22456 0.4734,0.0721 0.94745,0.13996 1.42117,0.20994 4.85217,-0.59259 -1.50478,0.0424 2.36236,0.0346 0.28505,-4.2e-4 0.54893,-0.16009 0.83075,-0.20289 0.21929,-0.0333 0.44984,0.0298 0.66497,-0.0242 0.18871,-0.0474 0.32278,-0.29258 0.51628,-0.27231 0.18066,0.0189 0.26769,0.24563 0.40154,0.36845 0.52386,0.41841 0.3367,0.0465 -0.57583,0.36386 0.31736,-0.4349 0.44605,0.20487 0.31956,0.25634 -0.21281,0.0866 -0.45911,0.0188 -0.68866,0.0283 -0.36135,-0.0196 -0.72268,-0.0392 -1.08402,-0.0587 -0.0197,-0.003 0.0244,-0.28096 0.044,-0.27784 l 0,0 c 0.34825,-0.0138 0.6965,-0.0276 1.04475,-0.0413 0.67119,-0.14066 0.5474,-0.21986 1.16046,0.0246 0.13015,0.0519 0.46537,0.0977 0.36971,0.20006 -0.046,0.0493 -1.06477,0.42227 -1.32406,0.49008 -0.0648,0.0169 0.12371,-0.0515 0.18556,-0.0773 0.0115,-0.0411 0.077,-0.11845 0.0346,-0.12327 -0.12172,-0.0139 -0.23494,0.0782 -0.35716,0.0866 -0.23339,0.016 -0.46847,-0.0324 -0.70167,-0.0139 -1.58334,0.12586 -0.32101,0.2371 -2.09377,0.14377 -0.4277,-0.0225 -0.85244,-0.0843 -1.27865,-0.12638 -3.64028,1.19452 0.59694,0.18677 -2.72703,-0.16768 -0.42303,-0.0451 -0.79398,0.34489 -1.2178,0.38188 -0.35281,0.0308 -0.69721,-0.12497 -1.04637,-0.18426 -1.36451,-0.2317 -0.67953,-0.23688 -2.194072,0.18117 -0.4146,-0.10552 -0.81603,-0.31112 -1.24382,-0.31656 -0.49339,-0.006 -0.9718,0.17374 -1.45316,0.28226 -0.50642,0.11416 -1.00438,0.26335 -1.50894,0.3855 -0.50634,0.12258 -1.01815,0.22212 -1.52353,0.34859 -2.37113,0.59341 -0.59124,0.28364 -3.03861,0.61475 -0.54526,-0.0484 -1.09495,-0.0606 -1.63578,-0.14518 -0.57601,-0.0901 -1.12508,-0.39858 -1.70773,-0.37796 -0.66808,0.0237 -1.27519,0.44008 -1.94032,0.50709 -0.67781,0.0683 -1.36219,-0.0481 -2.04096,-0.10602 -1.5772,-0.13455 -3.13896,-0.42253 -4.71963,-0.52548 -0.85467,-0.12965 -1.70934,-0.2593 -2.56401,-0.38896 -0.79369,-0.23179 -1.56818,-0.54411 -2.38108,-0.69537 -0.24481,-0.0456 -4.25313,-0.31147 -4.53778,-0.31023 -0.79858,0.003 -1.59328,0.19652 -2.39076,0.1545 -0.84349,-0.0445 -1.66682,-0.27484 -2.50023,-0.41226 -0.91897,0.11778 -1.8334,0.27927 -2.75693,0.35334 -6.63986,0.53248 1.06568,-0.28869 -5.61286,-0.006 -0.90769,0.0384 -1.80268,0.22806 -2.70525,0.33172 -3.18276,0.36554 -1.50218,-10e-4 -4.22386,0.77551 -0.41398,0.0365 -0.83021,0.0529 -1.24192,0.10944 -0.28192,0.0387 -0.55095,0.18453 -0.83538,0.1759 -0.27059,-0.008 -0.51274,-0.26555 -0.78038,-0.2249 -0.31627,0.048 -0.5399,0.35057 -0.83648,0.47047 -0.98499,0.39819 -0.75107,0.30545 -1.33184,-0.41567 0.0349,-0.21782 0.0555,-1.13454 0.60207,-0.034 0.0561,0.11289 -0.0626,0.35836 -0.18537,0.32959 -0.38546,-0.0904 -0.87551,-0.24235 -1.01813,-0.6117 -0.0876,-0.22684 0.514,-0.0821 0.68257,-0.25735 0.21478,-0.2233 0.25373,-0.56531 0.3806,-0.84797 0.83247,-0.56015 0.42372,-0.53303 1.25002,0.62796 0.0718,0.10084 -0.13374,-0.22363 -0.24397,-0.27992 -0.23615,-0.12057 -0.54536,-0.0781 -0.76055,-0.23299 -0.23232,-0.16724 1.19879,-0.8107 0.72359,-0.46252 0.2383,-0.36342 0.61775,-1.35241 0.98659,0.0748 0.0572,0.22133 -0.39982,-0.24053 -0.54339,-0.41843 -0.26357,-0.32655 -0.11321,-1.52854 0.57474,-1.05313 0.19964,0.29322 0.46463,0.55133 0.59892,0.87965 0.035,0.0855 -0.1849,-0.0298 -0.26788,-0.0703 -0.28192,-0.13752 -0.61429,-0.22432 -0.82057,-0.46062 -0.0694,-0.0795 0.17139,-0.13433 0.21903,-0.22846 0.39688,-0.78438 -0.24021,-0.29676 0.69239,-0.76629 0.098,-0.0845 0.19604,-0.16898 0.29405,-0.25348 -0.026,-0.11205 -0.14942,-0.24605 -0.0779,-0.33617 0.0999,-0.12588 0.33505,-0.0437 0.45969,-0.14509 0.0984,-0.0801 0.0676,-0.25302 0.14919,-0.3502 0.60552,-0.72131 0.29634,0.10304 0.51732,-0.70923 -0.009,-0.33633 -0.0575,-0.60433 0.15434,-0.92013 0.17617,-0.26265 0.51849,-0.40127 0.65471,-0.6867 0.15763,-0.33025 0.009,-0.76295 0.18914,-1.08142 0.40986,-0.72413 1.425,-0.99137 1.62156,-1.89781 1.1854,-2.09177 -0.13048,0.33454 0.86959,-1.84796 0.18709,-0.4083 0.41704,-0.79558 0.62152,-1.19546 0.25118,-0.49116 0.46896,-1.00022 0.74543,-1.47761 0.32232,-0.55659 0.72938,-1.0614 1.04839,-1.6199 0.30831,-0.53974 0.5537,-1.11307 0.83055,-1.66961 0.37538,-0.4398 0.75065,-0.8797 1.12615,-1.3194 0.38259,-0.44801 0.79638,-0.87111 1.14811,-1.34373 3.35181,-4.50387 -1.40032,1.42833 2.59335,-4.17923 1.30786,-1.83639 3.03746,-3.35265 4.14866,-5.34173 0.68632,-0.65676 1.49999,-1.20221 2.05899,-1.97026 0.37223,-0.51145 0.38871,-1.20865 0.6678,-1.77631 0.23935,-0.48682 0.57371,-0.92122 0.87895,-1.36968 0.35251,-0.51791 0.68237,-1.05591 1.09365,-1.5285 1.01933,-1.17129 2.3235,-2.07663 3.22921,-3.3572 0.44992,-0.36382 0.92647,-0.69698 1.34976,-1.09147 0.18134,-0.16901 0.70312,-0.91116 0.87128,-1.1546 1.18327,-1.71295 1.93516,-3.19834 3.78517,-4.39143 0.0356,-0.021 0.33215,0.48201 0.29659,0.50298 z"
       inkscape:connector-curvature="0" />
    <path
       style="color:#000000;clip-rule:nonzero;display:inline;overflow:visible;visibility:visible;opacity:1;isolation:auto;mix-blend-mode:normal;color-interpolation:sRGB;color-interpolation-filters:linearRGB;solid-color:#000000;solid-opacity:1;fill:none;fill-opacity:1;fill-rule:nonzero;stroke:#000000;stroke-width:3.21813941;stroke-linecap:butt;stroke-linejoin:miter;stroke-miterlimit:4;stroke-dasharray:none;stroke-dashoffset:0;stroke-opacity:0.50931672;marker:none;color-rendering:auto;image-rendering:auto;shape-rendering:auto;text-rendering:auto;enable-background:accumulate"
       id="path4176"
       d="m 21.054476,959.90893 c 1.039902,2.59992 -1.603171,-2.14525 -0.924441,-1.92787 0.325546,0.10426 0.493571,0.4784 0.692514,0.75638 0.964307,1.34741 0.423451,0.92617 1.206049,1.92904 0.03802,0.0487 -0.0449,-0.11507 -0.06736,-0.1726 0.0098,0.22316 -0.109739,0.49471 0.02938,0.66949 0.341779,0.42942 0.940386,0.59424 1.303807,1.00553 0.676177,0.76527 1.194619,1.65662 1.784826,2.48999 0.728649,1.02885 1.367096,2.12597 2.171674,3.09659 1.405372,1.69538 3.187843,3.14952 4.839213,4.59239 4.34295,4.86941 -0.59366,-0.82904 3.86431,4.9058 0.83862,1.07882 1.8117,2.04957 2.63606,3.13932 0.96827,1.28 4.06782,6.03202 5.03694,7.37628 0.72294,1.00277 1.51217,1.95606 2.26825,2.93408 2.79212,5.82182 0.0852,-0.0689 2.30061,5.4543 0.3326,0.82922 0.83281,1.59287 1.09121,2.44812 0.25786,0.85347 0.29731,1.75823 0.44529,2.63743 0.13576,0.8067 0.13541,1.6483 0.4059,2.4204 0.23767,0.6784 0.72886,1.2391 1.09328,1.8587 0.77985,1.7649 0.99451,3.7029 1.60345,5.5196 0.18244,0.5443 0.49856,1.041 0.65044,1.5945 0.13356,0.4869 0.12175,1.0026 0.19891,1.5015 0.0728,0.4706 0.16721,0.9377 0.25081,1.4065 1.35674,1.8404 0.39198,0.2569 1.14348,2.3597 0.13091,0.3663 0.40326,0.6799 0.49014,1.0591 0.21283,0.9289 -0.16273,0.8492 -0.0957,1.6651 0.0152,0.1841 0.11444,0.3512 0.17167,0.5268 0.19902,0.1821 0.7764,0.6634 0.86464,0.9377 0.0683,0.2123 -0.0456,0.4469 -0.0225,0.6686 0.0122,0.1172 0.0314,0.2607 0.12664,0.33 0.0713,0.052 0.3403,-0.011 0.26021,-0.048 -0.24186,-0.1117 -0.51754,-0.1266 -0.77632,-0.1899 0.19037,0 0.38081,0 0.57112,-0 0.19093,-0 0.47063,-0.1898 0.57232,-0.028 0.10035,0.1595 -0.11801,0.3967 -0.28162,0.4903 -0.13527,0.077 -0.30733,-0.071 -0.463,-0.065 -0.0831,0 -0.17935,0.1598 -0.23088,0.095 -0.073,-0.092 0.0181,-0.2351 0.0272,-0.3526 -0.0376,-0.2699 -0.0224,-0.2717 -0.0458,-0 0.003,-0.012 0.17183,0.022 0.16942,0.034 l 0,0 c 0.3147,-0.3223 0.33582,-0.3698 0.12989,-0.086 -0.19281,0.7253 0.0692,-0.1042 -0.13006,-0.027 -0.1077,0.042 -0.1357,0.2254 -0.0948,0.3334 0.0197,0.052 0.40051,-0.2629 0.44572,-0.1679 -0.0166,0.01 -0.53952,0.2599 -0.69295,0.1599 -0.0736,-0.048 -0.10105,-0.1456 -0.1341,-0.227 -0.23339,-0.5755 -0.15545,-1.2129 -0.52474,-1.7397 -0.0694,-0.1899 -0.11872,-0.3885 -0.20827,-0.5698 -0.10335,-0.2092 -0.31837,-0.3678 -0.36754,-0.5959 -0.37731,-1.7509 0.62635,-0.039 -0.11772,-2.0297 -0.30597,-0.8186 -1.0795,-1.4088 -1.36407,-2.239 0.0104,-3.1833 0.30219,-0.041 -0.91674,-2.8851 -0.30338,-0.7079 -0.45313,-2.7669 -0.65453,-3.4638 -0.17225,-0.5961 -0.50797,-1.1335 -0.71679,-1.7177 -0.22355,-0.6255 -0.38577,-1.2713 -0.57865,-1.9069 -0.58128,-1.4196 -1.20574,-2.8219 -1.75604,-4.2539 -0.30752,-0.8002 -0.66725,-1.5883 -0.86068,-2.42348 -0.20314,-0.87711 -0.0156,-1.83506 -0.32171,-2.68174 -0.64161,-1.77449 -2.53194,-2.92331 -3.0862,-4.7455 -2.76467,-4.41874 -1.22238,-2.13284 -4.58422,-6.69243 -0.89669,-1.21618 -1.88518,-2.36991 -2.68871,-3.64956 -0.72427,-1.15341 -1.129,-2.49157 -1.8807,-3.6273 -1.12954,-1.70657 -2.92134,-2.90748 -3.94092,-4.7078 -5.421683,-3.51897 -0.22132,0.44881 -4.527309,-4.99917 -4.991319,-6.31507 -1.120425,0.92783 -4.158581,-5.43518 -0.755411,-1.58212 -0.169594,-1.35389 -1.052246,-1.55186 -0.140862,0.008 -0.317913,0.11779 -0.422578,0.0232 -0.513548,-0.46405 -0.536833,-1.82147 -0.596079,-2.2716 -0.04645,-0.35306 -0.222204,-0.71682 -0.128956,-1.06049 0.04263,-0.15709 0.239493,0.22871 0.315622,0.37258 0.260642,0.4925 0.458572,1.01571 0.687857,1.52356 0.01632,0.0308 -0.419039,0.26167 -0.435369,0.23089 z"
       inkscape:connector-curvature="0" />
    <path
       style="color:#000000;clip-rule:nonzero;display:inline;overflow:visible;visibility:visible;opacity:1;isolation:auto;mix-blend-mode:normal;color-interpolation:sRGB;color-interpolation-filters:linearRGB;solid-color:#000000;solid-opacity:1;fill:none;fill-opacity:1;fill-rule:nonzero;stroke:#000000;stroke-width:3.21813941;stroke-linecap:butt;stroke-linejoin:miter;stroke-miterlimit:4;stroke-dasharray:none;stroke-dashoffset:0;stroke-opacity:0.50931672;marker:none;color-rendering:auto;image-rendering:auto;shape-rendering:auto;text-rendering:auto;enable-background:accumulate"
       id="path4184"
       d="m 27.723794,965.24303 c 1.445955,1.77692 4.277264,5.18301 5.444954,6.96674 0.9074,1.38613 1.5308,2.94469 2.43605,4.33222 0.85448,1.30973 2.00615,2.41241 2.83103,3.74098 0.84079,1.3542 1.22775,2.97029 2.14517,4.27381 1.03061,1.46433 2.42802,2.63259 3.64203,3.94888 2.90934,3.89868 4.37713,5.50267 6.56216,9.87957 0.78118,1.56479 1.38854,3.21327 1.97407,4.86127 0.46753,1.3159 0.76493,2.6865 1.18127,4.0194 0.727,2.3276 0.96344,2.8537 1.77438,4.9558 0.35627,0.7596 1.37705,2.8115 1.53524,3.6493 0.3557,1.8839 -0.0993,2.3767 -0.27701,4.2159 -0.0981,1.0151 -0.0155,1.9332 0.0415,2.9359 0.0524,0.4477 0.13765,1.3601 0.27161,1.8054 0.0974,0.3237 0.39165,0.6015 0.38215,0.9394 -0.01,0.3552 -0.29074,0.6485 -0.43593,0.9728 -0.376,0.84 -0.22299,0.4845 -0.50174,1.1495 0.16304,0.2862 0.15206,0.1325 -0.18378,0.4244 -0.006,-0.01 0.11126,-0.1 0.11771,-0.091 l 0,0 c -0.62873,0.1845 -0.51878,0.3109 -0.41319,-0.2861 -0.26639,-1.0142 -0.1483,-0.087 0.19557,-1.276 0.0792,-0.2737 0.0867,-0.5637 0.11529,-0.8473 0.0925,-0.9191 0.0439,-1.7815 -0.30722,-2.6514 -0.0561,-0.8123 -0.17991,-2.2709 -0.11913,-3.0301 0.0532,-0.6649 0.37254,-1.3096 0.3231,-1.9748 -0.0447,-0.6011 -0.51224,-1.1102 -0.59676,-1.7071 -0.51436,-3.6321 1.02627,-0.5996 -1.04302,-3.7319 -0.43213,-0.6689 -0.99751,-1.2686 -1.29639,-2.0067 -0.38617,-0.9537 -0.45231,-2.0085 -0.73053,-2.9991 -0.36778,-1.3095 -0.72602,-2.6255 -1.2066,-3.898 -2.03256,-5.38157 -4.81431,-9.95773 -8.66039,-14.24881 -9.39861,-14.34175 3.02232,4.39662 -5.88505,-8.407 -6.15183,-8.84275 1.08762,1.2125 -4.66778,-8.35124 -1.9033,-3.16272 -3.075243,-4.12975 -5.498716,-6.64171 -0.06526,-0.0601 0.784743,-0.98294 0.849993,-0.92283 z"
       inkscape:connector-curvature="0" />
    <path
       style="color:#000000;clip-rule:nonzero;display:inline;overflow:visible;visibility:visible;opacity:1;isolation:auto;mix-blend-mode:normal;color-interpolation:sRGB;color-interpolation-filters:linearRGB;solid-color:#000000;solid-opacity:1;fill:none;fill-opacity:1;fill-rule:nonzero;stroke:#000000;stroke-width:3.21813941;stroke-linecap:butt;stroke-linejoin:miter;stroke-miterlimit:4;stroke-dasharray:none;stroke-dashoffset:0;stroke-opacity:0.50931672;marker:none;color-rendering:auto;image-rendering:auto;shape-rendering:auto;text-rendering:auto;enable-background:accumulate"
       id="path4192"
       d="m 24.721661,964.81037 c -0.24844,-0.66142 -0.475831,-1.33113 -0.745337,-1.98425 -0.12985,-0.3147 -0.178324,-0.71289 -0.45146,-0.9161 -0.168735,-0.12555 -0.01736,0.4337 0.06383,0.62771 0.169143,0.40405 0.47985,0.73564 0.671732,1.1294 0.103405,0.21217 0.376049,0.51052 0.208437,0.67669 -0.165045,0.16363 -0.438524,-0.15411 -0.657794,-0.23116 1.734636,-0.0968 -1.452669,-1.31891 -0.901143,-1.42116 0.943767,-0.17496 1.103642,1.74229 1.166109,1.9194 0.22394,0.63491 0.397531,1.30039 0.743676,1.87783 0.339972,0.56716 0.857947,1.00646 1.286931,1.50969 0.627614,0.46386 1.292599,0.88102 1.882851,1.39158 0.853082,0.73791 1.624171,1.5656 2.438355,2.34621 5.36953,5.14801 1.76354,1.52516 7.49179,7.71045 6.25167,6.75047 2.75528,2.63454 8.41166,9.72222 7.75284,9.04471 0.23327,-0.23628 6.60396,9.12656 0.9839,1.44603 2.42688,2.58576 3.21346,4.14796 0.77574,1.5406 0.79034,3.3668 1.38553,4.9858 2.35688,6.4109 1.9986,1.3031 1.73652,7.5572 -0.0577,0.901 0.004,1.8178 -0.173,2.7031 -0.85024,4.2414 -0.97343,0.4517 -1.29879,4.8657 -0.0673,0.9127 0.0821,1.8296 0.0691,2.7447 -0.0127,0.9 -0.0985,1.7975 -0.14615,2.6963 -0.0368,0.6943 -0.0716,1.3886 -0.10741,2.0828 -0.14651,0.4557 -0.27888,0.9162 -0.43955,1.3671 -0.0548,0.1539 -0.6732,1.5914 -0.68686,1.7857 -0.0249,0.3533 0.12032,0.698 0.18048,1.0471 8.4e-4,0 -0.0611,0.01 -0.0615,0.01 l 0,0 c -0.21512,-0.778 -0.44813,-1.1905 -0.24915,-1.9951 0.0754,-0.3048 0.26487,-0.5694 0.39729,-0.854 0.10544,-0.4337 0.21087,-0.8673 0.31631,-1.301 -0.0588,-2.9407 0.0498,-1.3644 -0.40194,-4.723 -0.048,-0.9635 -0.0246,-1.9342 0.0831,-2.8929 0.28108,-2.5011 1.42489,-4.8028 1.56085,-7.3302 -0.41147,-2.7945 -0.53602,-4.5639 -1.60979,-7.3187 -0.34172,-0.8767 -4.15051,-8.28823 -4.59689,-8.94586 -1.05371,-1.55239 -6.22821,-7.15551 -7.36626,-8.41071 -3.74272,-4.99551 -7.41766,-10.06806 -11.68922,-14.63628 -1.07149,-1.14592 -2.24177,-2.19532 -3.362658,-3.29297 -0.91801,-0.68225 -1.943519,-1.23974 -2.754044,-2.04676 -0.597902,-0.59531 -0.941146,-1.40064 -1.411715,-2.10097 -1.429621,-1.82439 -2.368948,-2.78548 -2.379606,-5.23795 -0.0013,-0.26771 -0.05656,-0.65903 0.180991,-0.78248 0.508685,-0.26435 -0.03777,2.47746 0.626913,1.6015 -0.300053,1.15746 -0.03276,0.27858 -0.105516,-0.17632 -0.06951,-0.43453 -0.279012,-0.83774 -0.358639,-1.27053 -0.03856,-0.20967 -0.205315,-0.65627 0.0072,-0.63952 0.356465,0.0281 0.615701,0.40335 0.809486,0.70385 0.38119,0.5911 0.587265,1.27825 0.880895,1.91737 0.01828,0.0328 -0.444858,0.29102 -0.46312,0.25828 z"
       inkscape:connector-curvature="0" />
    <path
       style="color:#000000;clip-rule:nonzero;display:inline;overflow:visible;visibility:visible;opacity:1;isolation:auto;mix-blend-mode:normal;color-interpolation:sRGB;color-interpolation-filters:linearRGB;solid-color:#000000;solid-opacity:1;fill:none;fill-opacity:1;fill-rule:nonzero;stroke:#000000;stroke-width:3.21813941;stroke-linecap:butt;stroke-linejoin:miter;stroke-miterlimit:4;stroke-dasharray:none;stroke-dashoffset:0;stroke-opacity:0.50931672;marker:none;color-rendering:auto;image-rendering:auto;shape-rendering:auto;text-rendering:auto;enable-background:accumulate"
       id="path4194"
       d="m 40.857928,998.44716 c -0.0533,0.54516 -0.0555,1.09779 -0.15999,1.63544 -0.0201,0.1035 -0.18664,0.345 -0.20481,0.2411 -0.0871,-0.49785 -0.20383,-1.04604 -0.0182,-1.51613 0.30433,-0.77054 0.9776,-1.33922 1.42201,-2.0384 2.02053,-3.1788 -0.0184,-0.62276 2.41704,-3.4267 0.60739,-0.27944 1.30346,-0.41649 1.82218,-0.83832 0.72464,-0.58929 1.25435,-1.38687 1.82417,-2.12693 0.87256,-1.13324 1.66602,-2.32524 2.49903,-3.48786 0.81633,-1.45383 1.46621,-3.01457 2.449,-4.36147 1.0077,-1.38105 2.34339,-2.49044 3.48148,-3.76619 0.93246,-1.04525 1.81931,-2.13033 2.72897,-3.19549 1.53535,-1.99225 3.89411,-2.98498 5.70945,-4.63103 0.75532,-0.68488 1.35248,-1.52612 2.02789,-2.28991 0.78246,-0.88486 1.78634,-1.6157 2.34574,-2.65603 0.53468,-0.99432 0.44089,-2.22573 0.84592,-3.27954 0.39245,-1.02106 1.02023,-1.93531 1.53034,-2.90297 0.0705,-0.86241 0.011,-1.74552 0.21157,-2.58725 0.28289,-1.18705 1.20825,-2.54809 1.86685,-3.56363 0.26104,-0.40252 0.50986,-0.81462 0.80274,-1.19458 0.96219,-1.24825 0.61305,-0.24181 0.88921,-1.57861 -0.003,-0.0118 0.16413,-0.056 0.16725,-0.0442 l 0,0 c 0.0535,0.3079 0.16778,0.61126 0.16056,0.92369 -0.0173,0.74945 -0.38907,1.76118 -0.76756,2.37313 -0.30137,0.48724 -0.75481,0.86845 -1.05757,1.35481 -1.0834,1.74034 -1.07811,2.32626 -1.66664,4.3848 -0.29169,1.0313 -0.51592,2.08411 -0.87507,3.09389 -0.8196,2.30435 -1.82068,4.39327 -3.30626,6.35166 -0.78101,1.02959 -1.60581,2.04904 -2.59594,2.87951 -0.84952,0.71254 -1.96374,1.04552 -2.86072,1.69729 -0.88858,0.64567 -1.64844,1.45206 -2.47265,2.17809 -8.3627,10.69351 4.16653,-5.42912 -5.32671,7.17867 -1.04916,1.39337 -2.21758,2.69476 -3.25572,4.09637 -0.87477,1.18104 -1.52246,2.53043 -2.47904,3.64624 -1.48466,1.7318 -2.4994,2.20569 -4.24879,3.25403 -0.44275,0.28105 -1.00471,0.43043 -1.32826,0.84315 -0.41633,0.53105 -0.51056,1.24974 -0.79296,1.8626 -0.33153,0.71948 -0.60028,1.4795 -1.04815,2.13293 -0.364,0.53108 -0.81457,1.02738 -1.35636,1.37518 -0.12042,0.077 -0.19121,-0.2499 -0.17492,-0.3921 0.0643,-0.56133 0.27222,-1.09677 0.40832,-1.64517 10e-4,-0.0273 0.38798,-0.007 0.38658,0.0199 z"
       inkscape:connector-curvature="0" />
    <path
       style="color:#000000;clip-rule:nonzero;display:inline;overflow:visible;visibility:visible;opacity:1;isolation:auto;mix-blend-mode:normal;color-interpolation:sRGB;color-interpolation-filters:linearRGB;solid-color:#000000;solid-opacity:1;fill:none;fill-opacity:1;fill-rule:nonzero;stroke:#000000;stroke-width:3.21813941;stroke-linecap:butt;stroke-linejoin:miter;stroke-miterlimit:4;stroke-dasharray:none;stroke-dashoffset:0;stroke-opacity:0.50931672;marker:none;color-rendering:auto;image-rendering:auto;shape-rendering:auto;text-rendering:auto;enable-background:accumulate"
       id="path4196"
       d="m 45.401998,992.57687 c 3.78218,-2.8988 2.3657,-1.67861 6.06814,-5.10771 0.8435,-0.78124 1.6928,-1.55695 2.51033,-2.36533 0.86436,-0.85468 1.81792,-1.6402 2.53397,-2.62248 0.80936,-1.11029 1.2697,-2.44065 2.0036,-3.60219 0.95172,-1.50628 2.03146,-2.92775 3.0472,-4.39162 1.70075,-3.7113 4.33703,-6.86501 6.31178,-10.41018 0.76957,-1.38157 1.36248,-2.85482 2.00498,-4.29988 0.45159,-1.01568 0.72108,-2.11782 1.27655,-3.08062 0.45721,-0.7925 1.18522,-1.3959 1.7301,-2.13089 0.5187,-0.69967 0.9716,-1.4458 1.4574,-2.1687 0.56943,-1.78049 1.80971,-3.26574 2.45234,-5.01072 0.50716,-1.37716 0.0291,-1.81384 0.87814,-2.8268 0.1528,-0.18231 0.35725,-0.37027 0.59374,-0.39588 0.22136,-0.024 0.40868,0.17682 0.61302,0.26522 0.30315,0.20912 0.32106,0.23029 0.0762,0.0334 -0.004,-0.004 0.0514,-0.0583 0.0552,-0.0544 l 0,0 c 0.0607,0.74089 0.23029,0.69259 -0.3221,0.41974 -0.12044,0.0533 -0.25033,0.23061 -0.36135,0.15976 -0.10671,-0.0681 0.053,-0.50085 0.0172,-0.37941 -0.0914,0.31035 -0.0945,0.64226 -0.18597,0.95257 -0.19576,0.66406 -0.47017,1.30291 -0.67396,1.96455 -1.35968,4.41433 -0.0481,1.0157 -1.89183,5.35612 -3.23566,3.9649 -0.22239,0.0285 -2.8646,4.20921 -0.62774,0.99326 -1.52,1.82969 -2.00211,2.90124 -0.64773,1.43964 -0.76243,3.07382 -1.34612,4.54059 -2.02281,5.08323 -3.06866,6.08202 -6.15111,10.62854 -3.98652,5.35428 -2.17636,3.10837 -6.02966,7.65826 -1.1019,1.30109 -3.98693,4.73657 -5.12712,5.84944 -2.61678,2.55406 -3.40544,2.89818 -6.32601,4.84665 -0.0664,0.0246 -0.41432,-0.91383 -0.34797,-0.93843 z"
       inkscape:connector-curvature="0" />
    <path
       style="color:#000000;clip-rule:nonzero;display:inline;overflow:visible;visibility:visible;opacity:1;isolation:auto;mix-blend-mode:normal;color-interpolation:sRGB;color-interpolation-filters:linearRGB;solid-color:#000000;solid-opacity:1;fill:none;fill-opacity:1;fill-rule:nonzero;stroke:#000000;stroke-width:3.21813941;stroke-linecap:butt;stroke-linejoin:miter;stroke-miterlimit:4;stroke-dasharray:none;stroke-dashoffset:0;stroke-opacity:0.50931672;marker:none;color-rendering:auto;image-rendering:auto;shape-rendering:auto;text-rendering:auto;enable-background:accumulate"
       id="path4198"
       d="m 45.290258,992.05411 c 0.96257,-0.96678 1.86367,-1.99894 2.88772,-2.90035 2.94629,-2.59346 2.73227,-1.65492 4.9908,-4.21583 0.50307,-0.57041 0.8884,-1.23505 1.35245,-1.83763 0.62265,-0.80852 1.27616,-1.59284 1.90707,-2.39493 0.94992,-1.20766 1.89025,-2.42284 2.83537,-3.63427 4.44094,-7.60426 1.25668,-1.95958 5.28816,-9.61458 0.67635,-1.28425 1.53364,-2.48232 2.06908,-3.83141 0.79033,-1.99136 0.37547,-3.3976 1.22733,-5.3153 0.36618,-0.82434 0.97211,-1.51971 1.45816,-2.27957 2.89809,-2.97197 1.46626,-1.12363 3.35572,-4.40232 0.30551,-0.53015 0.6496,-1.03759 0.95126,-1.56995 0.1689,-0.29808 0.32888,-0.60267 0.45934,-0.91946 0.0751,-0.18246 0.0502,-0.40403 0.15463,-0.57142 0.1623,-0.26 0.41584,-0.45038 0.62376,-0.67558 0.54448,-0.26829 1.05333,-0.3911 1.34284,-0.98448 0.0611,-0.12525 -0.021,-0.27794 -0.0315,-0.41691 -0.003,-0.0103 0.14274,-0.0516 0.14566,-0.0413 l 0,0 c 0.0536,0.19893 0.22088,0.39969 0.16086,0.59679 -0.20897,0.68634 -0.79976,0.97814 -1.32476,1.34474 -0.25025,0.24906 -0.49265,0.42986 -0.56357,0.81891 -0.067,0.36732 0.0787,0.76275 -0.0308,1.1197 -0.18616,0.60679 -0.50687,1.16823 -0.83734,1.71011 -0.94132,1.54348 -2.19703,2.88033 -3.11102,4.44266 -0.45505,0.69714 -0.96832,1.35958 -1.36517,2.09143 -0.6035,1.11293 -1.72471,4.11056 -2.00181,5.17312 -0.36408,1.39608 -0.25089,2.93165 -0.85044,4.24394 -1.55371,3.40073 -5.1073,5.71104 -5.57376,9.73365 -1.09626,1.16325 -2.18072,2.33773 -3.28875,3.48976 -0.7406,0.77 -1.54498,1.47914 -2.25673,2.27588 -0.51693,0.57865 -0.9614,1.21848 -1.42242,1.84258 -0.65054,0.88066 -1.14789,1.88657 -1.91172,2.67098 -1.35126,1.38767 -4.75049,3.58609 -6.32435,4.65846 -0.043,0.0223 -0.35902,-0.58506 -0.31606,-0.60741 z"
       inkscape:connector-curvature="0" />
    <path
       style="color:#000000;clip-rule:nonzero;display:inline;overflow:visible;visibility:visible;opacity:1;isolation:auto;mix-blend-mode:normal;color-interpolation:sRGB;color-interpolation-filters:linearRGB;solid-color:#000000;solid-opacity:1;fill:none;fill-opacity:1;fill-rule:nonzero;stroke:#000000;stroke-width:3.21813941;stroke-linecap:butt;stroke-linejoin:miter;stroke-miterlimit:4;stroke-dasharray:none;stroke-dashoffset:0;stroke-opacity:0.50931672;marker:none;color-rendering:auto;image-rendering:auto;shape-rendering:auto;text-rendering:auto;enable-background:accumulate"
       id="path4200"
       d="m 47.483608,996.62812 c -0.47219,0.1287 -0.93217,0.45608 -1.41656,0.38608 -0.19325,-0.0279 -0.0509,-0.47737 0.119,-0.57359 0.62695,-0.35502 1.36903,-0.45009 2.05845,-0.65943 1.07267,-0.32571 2.15208,-0.62879 3.2274,-0.9456 1.14093,-0.33614 2.24753,-0.82144 3.42138,-1.01326 1.14947,-0.18783 2.32812,-0.0776 3.49219,-0.11647 11.29774,-1.95195 -4.13031,0.45095 9.4371,-0.63316 2.18811,-0.17484 4.31927,-0.82283 6.50508,-1.02437 3.78343,-0.34886 8.96626,-0.20951 12.79763,0.0487 1.61356,0.10876 3.21823,0.32337 4.82736,0.48505 3.94541,0.91082 3.43091,1.07554 7.38347,0.92011 1.302072,-0.0512 2.592812,-0.27913 3.894522,-0.33874 1.3735,-0.0629 2.7498,-0.0225 4.12473,-0.0285 3.90805,-0.0171 2.78139,-0.0228 5.98201,0.0393 0.20151,0.12127 0.67418,0.13916 0.60455,0.36381 -0.10888,0.35132 -2.43337,1.72762 -2.06984,0.25753 0.0526,-0.21266 0.32758,-0.29342 0.46707,-0.46234 0.0614,-0.0744 0.0858,-0.1728 0.12878,-0.2592 0,-0.003 0.0467,-0.005 0.0468,-0.002 l 0,0 c -0.12565,0.69255 0.0791,0.27596 -0.33939,0.5236 -0.0214,0.0126 0.0469,0.0211 0.0717,0.0202 0.25794,-0.009 0.54127,-0.16453 0.77266,-0.0502 1.83467,0.90652 0.32456,0.70192 0.13482,0.68998 -4.93164,1.17826 0.68849,0.14633 -5.89033,-0.0189 -1.39792,-0.0351 -2.78131,0.31277 -4.17828,0.37522 -1.30561,0.0584 -2.61386,-0.0246 -3.920732,-0.0132 -5.91371,0.0517 -1.44643,0.21182 -7.56904,-0.15242 -18.69067,-0.83763 11.724212,0.46316 -10.77617,-0.2491 -2.2228,-0.0704 -4.43782,-0.35454 -6.66172,-0.36585 -2.14139,-0.0109 -4.27861,0.1907 -6.41727,0.29937 -11.21997,0.57006 -0.0165,0.0661 -9.34891,0.47198 -1.14376,0.1985 -2.28747,0.39733 -3.43131,0.5955 -1.14193,0.19785 -2.28911,0.36738 -3.42598,0.59256 -1.08713,0.21532 -2.15718,0.51141 -3.24395,0.72854 -0.69274,0.13841 -1.38887,0.40318 -2.09226,0.33758 -0.19107,-0.0178 -0.34417,-0.46091 -0.17363,-0.54891 0.42571,-0.21967 0.95571,-0.0675 1.43356,-0.10122 0.0298,-0.002 0.0549,0.41936 0.0251,0.42114 z"
       inkscape:connector-curvature="0" />
    <path
       style="color:#000000;clip-rule:nonzero;display:inline;overflow:visible;visibility:visible;opacity:1;isolation:auto;mix-blend-mode:normal;color-interpolation:sRGB;color-interpolation-filters:linearRGB;solid-color:#000000;solid-opacity:1;fill:none;fill-opacity:1;fill-rule:nonzero;stroke:#000000;stroke-width:3.21813941;stroke-linecap:butt;stroke-linejoin:miter;stroke-miterlimit:4;stroke-dasharray:none;stroke-dashoffset:0;stroke-opacity:0.50931672;marker:none;color-rendering:auto;image-rendering:auto;shape-rendering:auto;text-rendering:auto;enable-background:accumulate"
       id="path4202"
       d="m 47.997538,997.16224 c -0.50807,0.10696 -1.01614,0.21393 -1.5242,0.32089 -0.0501,-0.0174 -0.19316,-0.0211 -0.15022,-0.0521 1.16457,-0.84292 2.20197,-1.35504 3.72026,-1.42275 2.84952,0.4704 1.43927,0.45627 4.23029,0.0742 1.67072,-0.0242 6.29938,-0.0685 7.45825,-0.21763 2.20205,-0.28343 4.33562,-0.99896 6.54054,-1.25914 7.07586,-0.83494 14.16319,-0.11556 21.22908,0.36371 1.73194,0.27382 3.47401,0.48984 5.19583,0.82145 1.43052,0.27551 2.81331,0.78801 4.25481,0.99868 1.700732,0.24854 5.280582,0.13757 7.071252,0.22522 0.86073,0.0421 1.72751,0.0779 2.57437,0.23749 0.51594,0.0973 0.98941,0.35166 1.48411,0.52749 0.0713,0.123 0.3066,0.26117 0.21393,0.36898 -0.80414,0.93555 -1.37569,0.40058 -2.29636,0.0371 -0.47557,-0.18776 -0.94252,-0.39665 -1.41378,-0.59498 -0.008,-0.003 0.0321,-0.11221 0.0399,-0.1094 l 0,0 c 0.4963,0.11808 0.99115,0.24242 1.48889,0.35423 0.11407,0.0256 1.90565,0.23319 2.08143,0.74329 0.0661,0.19187 -0.27131,0.30188 -0.40697,0.45282 -3.35029,-0.1402 0.49411,0.14256 -4.0164,-0.76947 -5.12976,-1.03724 -1.38879,0.0476 -7.069602,-0.44791 -12.6985,-1.10754 5.169912,-0.54827 -9.60086,-0.79883 -6.08043,-0.70919 -7.0911,-1.06942 -13.4987,-0.72718 -2.50939,0.13403 -4.98503,0.72629 -7.49713,0.79238 -2.14659,0.0565 -4.28063,-0.44307 -6.4279,-0.42605 -12.13969,0.0962 0.82762,0.95404 -7.50945,0.28755 -2.15096,0.39234 -1.95045,0.44118 -4.17122,0.49506 -0.75516,0.0183 -1.51845,0.0904 -2.2661,-0.0175 -0.52526,-0.0758 -1.08087,-0.20409 -1.5026,-0.52625 -0.13467,-0.10287 0.0375,-0.43508 0.20419,-0.46559 0.5096,-0.0933 1.03162,0.0966 1.54744,0.14496 0.0417,-10e-4 0.0587,0.58813 0.017,0.58932 z"
       inkscape:connector-curvature="0" />
    <path
       style="color:#000000;clip-rule:nonzero;display:inline;overflow:visible;visibility:visible;opacity:1;isolation:auto;mix-blend-mode:normal;color-interpolation:sRGB;color-interpolation-filters:linearRGB;solid-color:#000000;solid-opacity:1;fill:none;fill-opacity:1;fill-rule:nonzero;stroke:#000000;stroke-width:3.21813941;stroke-linecap:butt;stroke-linejoin:miter;stroke-miterlimit:4;stroke-dasharray:none;stroke-dashoffset:0;stroke-opacity:0.50931672;marker:none;color-rendering:auto;image-rendering:auto;shape-rendering:auto;text-rendering:auto;enable-background:accumulate"
       id="path4204"
       d="m 44.802938,995.43302 c 3.75116,-0.35275 3.89153,-0.48436 7.73678,-0.35088 1.25305,0.0435 2.49813,0.27673 3.75191,0.26731 4.86808,-0.0366 4.0206,-0.79388 9.34479,-0.57771 2.11009,0.0857 4.19646,0.47853 6.29468,0.71779 4.06743,-0.087 9.48759,-0.37277 13.5724,0.1887 1.82595,0.25098 3.55367,1.01113 5.37336,1.30404 1.53373,0.24688 3.12409,0.0188 4.65014,0.30941 8.298582,1.58026 -0.7724,1.38995 7.239582,1.1919 1.71911,-0.0464 3.39741,0.46261 5.10788,0.51628 0.37432,0.0117 1.00398,-0.49031 1.11567,-0.13283 0.33518,1.07284 -1.65131,0.71348 -1.82618,0.70054 -0.01,-0.002 0.0188,-0.13769 0.0284,-0.13568 l 0,0 c 0.29871,-0.0824 0.59178,-0.30542 0.89613,-0.24722 0.30871,0.059 0.88042,0.27447 0.75624,0.56321 -0.14972,0.34812 -0.72929,0.2406 -1.108,0.25472 -1.75216,0.065 -3.4977,-0.46782 -5.25595,-0.20894 -1.15103,-0.15862 -2.29582,-0.37222 -3.453102,-0.47585 -1.32698,-0.11882 -2.67362,-8.3e-4 -3.99232,-0.19083 -1.49706,-0.21554 -2.92916,-0.7728 -4.42124,-1.02053 -1.8087,-0.3003 -3.63987,-0.4488 -5.46523,-0.62094 -7.32295,-0.69058 -5.89361,-0.50812 -13.43417,-0.48779 -10.00636,-0.85997 -2.56401,-0.45112 -11.46922,-0.41933 -1.36342,0.005 -2.72656,-0.0461 -4.08931,-0.0889 -1.25708,-0.0396 -2.51239,-0.18628 -3.76978,-0.1584 -1.34975,0.0299 -2.68659,0.33324 -4.03667,0.33152 -1.22497,-0.002 -2.43935,-0.22752 -3.65902,-0.34129 -0.0628,-0.008 0.0494,-0.8962 0.11221,-0.88826 z"
       inkscape:connector-curvature="0" />
    <path
       style="color:#000000;clip-rule:nonzero;display:inline;overflow:visible;visibility:visible;opacity:1;isolation:auto;mix-blend-mode:normal;color-interpolation:sRGB;color-interpolation-filters:linearRGB;solid-color:#000000;solid-opacity:1;fill:none;fill-opacity:1;fill-rule:nonzero;stroke:#000000;stroke-width:3.21813941;stroke-linecap:butt;stroke-linejoin:miter;stroke-miterlimit:4;stroke-dasharray:none;stroke-dashoffset:0;stroke-opacity:0.50931672;marker:none;color-rendering:auto;image-rendering:auto;shape-rendering:auto;text-rendering:auto;enable-background:accumulate"
       id="path4206"
       d="m 103.44112,961.78671 c -0.97648,-0.47273 -4.559862,-2.34386 -5.986602,-2.61453 -2.13584,-0.40521 -0.13712,0.63 -0.71487,1.0579 -1.43361,1.06177 -3.26876,0.48922 -4.79321,0.31582 -1.05489,-0.0905 -2.10789,-0.20662 -3.16467,-0.27152 -1.16083,-0.0713 -2.6802,-0.50177 -3.49726,0.73521 -0.26557,0.40206 -0.052,0.99444 -0.28223,1.41773 -0.54599,1.00389 -2.37502,2.45813 -3.14627,3.13437 -0.77322,0.13931 -2.76662,0.23888 -3.34671,1.17849 -0.20981,0.33984 0.0942,0.79818 0.0643,1.19646 -0.0458,0.6108 -0.23892,1.20413 -0.29006,1.81451 -0.42406,5.06168 0.41053,-0.57471 -0.3715,4.1579 -0.20118,1.19927 -0.87589,2.88989 -0.0693,4.05745 0.28735,0.41596 0.74287,0.68604 1.12161,1.02092 1.47553,1.30469 1.06465,0.94796 2.66613,2.10185 0.60823,0.14128 1.22807,0.23959 1.82469,0.42383 0.69256,0.21387 1.33047,0.59505 2.03438,0.76791 2.12711,0.52236 3.43173,0.34382 5.62039,0.53718 0.93962,0.083 1.86436,0.38715 2.80716,0.35741 0.90743,-0.0286 1.78103,-0.35346 2.67154,-0.53019 0.86296,0.0346 1.72555,0.12759 2.58888,0.10371 0.931332,-0.0258 1.853972,-0.19127 2.783672,-0.25234 2.49699,-0.16401 5.09641,-0.0179 7.46718,-0.98946 0.38959,-0.15964 0.71556,-0.44387 1.07334,-0.6658 0.35505,-1.87458 -0.20539,0.52053 0.75668,-1.63841 0.17067,-0.38301 0.20158,-0.81436 0.32138,-1.2162 0.15582,-0.52265 0.46498,-1.01231 0.50517,-1.55622 0.0506,-0.68446 -0.1728,-1.36194 -0.23908,-2.04506 -0.0748,-0.7709 -0.12267,-1.54417 -0.184,-2.31625 -0.50014,-2.28093 -0.20509,-1.776 -1.21287,-3.61151 -0.17594,-0.32046 -0.35402,-0.64335 -0.5792,-0.93136 -0.74668,-0.955 -0.77585,-0.57254 -1.83857,-1.41391 -0.50158,-0.39709 -0.94134,-0.86656 -1.41201,-1.29984 -3.35047,-2.12275 -0.58962,-0.67731 -4.47941,-1.87321 -0.74559,-0.22923 -1.42381,-0.66973 -2.186222,-0.83462 -0.74375,-0.16085 -1.5489,0.0832 -2.27906,-0.13112 -7.46073,-2.18934 3.654372,-0.26291 -3.99846,-1.40819 -3.20233,-1.05042 -0.47491,-0.58679 -3.72308,0.13542 -0.5146,0.11442 -1.08935,-0.15608 -1.58111,0.0338 -0.63819,0.24645 -1.07536,0.85009 -1.65379,1.21538 -5.04854,3.18822 1.30774,-1.28328 -3.6304,2.28056 -0.57779,0.25236 -1.21706,0.39519 -1.73336,0.75707 -0.37455,0.26252 -0.58943,0.70008 -0.86569,1.06461 -0.61159,0.80702 -1.67603,2.20715 -1.86293,3.22648 -0.1278,0.69705 0.081,1.41501 0.12154,2.12251 -0.19319,0.7085 -0.38638,1.41699 -0.57958,2.12549 1.1876,0.92733 0.005,2.61717 0.68935,3.64802 0.34625,0.5213 1.12437,0.56417 1.62659,0.93756 0.55041,0.4092 0.94327,1.01209 1.51181,1.39571 1.12455,0.7588 3.33475,1.5393 4.55795,2.01774 0.94891,0.459 3.40217,1.71985 4.487,1.96263 0.76643,0.17152 1.56644,0.11792 2.35066,0.16059 4.59986,0.25028 0.0355,0.0245 4.74726,-0.0894 0.8074,-0.0195 1.61467,0.0444 2.422012,0.0665 1.02204,-1.1969 2.95843,-0.1984 4.0962,-1.0273 0.56198,-0.40941 0.58711,-1.30102 1.09612,-1.77467 0.29936,-0.27855 0.90945,-0.0334 1.17819,-0.34163 0.38582,-0.44247 0.38266,-1.11001 0.57211,-1.66566 0.21022,-0.61656 0.41794,-1.23397 0.62691,-1.85095 0.0107,-0.77458 0.17774,-1.56291 0.032,-2.32373 -0.18013,-0.94061 -0.70403,-1.78296 -0.99332,-2.69592 -1.69961,-5.36391 0.19985,-1.0413 -2.36105,-5.94151 -0.38944,-0.74517 -0.62898,-1.58075 -1.13354,-2.25331 -0.3719,-0.49571 -0.95971,-0.7843 -1.43956,-1.17645 -2.15859,-0.35972 -2.586952,-0.45704 -4.995892,-0.71879 -1.33345,-0.14488 -2.66527,-0.34569 -4.0062,-0.37664 -1.55754,-0.036 -3.11545,0.0821 -4.67055,0.17635 -1.51871,0.0921 -3.0578,0.0776 -4.54841,0.38262 -1.43866,0.29435 -2.78413,0.93496 -4.17619,1.40245 -5.49804,2.94986 -2.8778,1.17123 -7.81238,5.40644 -0.0393,0.0206 -0.33087,-0.53455 -0.29161,-0.55517 l 0,0 c 5.089,-4.3857 2.46352,-2.31584 7.87236,-6.21474 1.49348,-0.7299 2.85068,-1.86248 4.48046,-2.18972 1.5376,-0.30872 3.12381,0.36769 4.69198,0.34803 1.60817,-0.0201 3.19488,-0.52237 4.80222,-0.46703 1.34663,0.0464 2.63257,0.59292 3.96844,0.76899 5.571172,0.73427 1.0929,-0.54903 5.602562,0.9777 2.26334,2.25058 0.99514,0.77585 2.96979,3.74753 0.61435,0.92452 1.38551,1.75702 1.8686,2.75641 0.50732,1.04953 0.72041,2.21734 1.07275,3.32854 0.32477,1.02425 0.87862,2.00618 0.95853,3.07771 0.0677,0.90727 -0.35286,1.78505 -0.52929,2.67757 -0.12878,1.82235 0.14273,2.62967 -1.19937,4.05262 -0.52264,0.55413 -1.31523,0.78667 -1.88375,1.29364 -0.56561,0.50437 -0.85908,1.29819 -1.4913,1.71602 -1.33066,0.8794 -2.98484,0.66461 -4.44838,0.67624 -4.263912,0.83759 -0.771132,0.36797 -4.974312,0.35679 -0.83149,-0.002 -1.67077,0.26012 -2.4913,0.12562 -0.81383,-0.1334 -1.50066,-0.70899 -2.30021,-0.91103 -4.61072,-1.16507 -0.75294,0.86861 -4.83221,-1.75908 -3.37013,-1.25617 -1.62727,-0.39686 -4.52921,-2.27114 -2.15202,-1.38992 -1.78077,-0.81892 -3.23633,-2.82436 -0.41182,-0.5674 -0.95775,-1.09007 -1.14132,-1.76672 -0.19182,-0.70709 0.044,-1.46463 0.066,-2.19694 0.0237,-2.30098 -0.0789,-2.21631 0.35363,-4.4908 0.13472,-0.70836 0.22903,-1.43577 0.49622,-2.1055 0.85375,-2.14003 2.78579,-3.36183 4.5307,-4.7006 0.63906,-0.33809 1.28976,-0.65504 1.91719,-1.01428 1.84536,-1.05657 3.69879,-2.46406 5.9265,-2.5927 1.31784,-0.0761 2.60612,0.61791 3.92611,0.51773 3.71045,1.67523 -0.045,0.25966 4.04597,0.94175 0.74592,0.12438 1.44712,0.44126 2.179192,0.63083 0.81535,0.21113 1.66913,0.28501 2.46139,0.57084 2.05255,0.7405 2.63791,1.38635 4.32456,2.67418 3.84969,1.68817 0.54566,-0.2283 2.6931,2.2094 0.26515,0.301 0.71083,0.38521 1.01433,0.6475 0.32775,0.28324 0.60665,0.62274 0.86114,0.97329 1.22575,1.68844 0.99796,1.64348 1.65616,3.8031 -0.12228,0.87112 -0.24456,1.74225 -0.36684,2.61338 0.0867,0.74338 0.33824,1.48583 0.25999,2.23015 -0.0622,0.59135 -0.46987,1.09338 -0.66834,1.65389 -0.14293,0.40363 -0.16881,0.84884 -0.35446,1.23469 -1.47375,3.063 -0.0366,-1.73299 -1.17266,2.80048 -0.51351,0.16052 -1.03268,0.30393 -1.54053,0.48156 -0.71094,0.24866 -1.37575,0.64942 -2.11436,0.79678 -0.89174,0.17791 -1.82191,0.0444 -2.72275,0.16825 -0.99126,0.13634 -1.94624,0.48589 -2.93905,0.61046 -1.825942,0.22911 -3.485392,0.055 -5.305632,-0.0478 -4.99881,1.31647 -0.58772,0.61355 -5.70578,0.089 -1.04283,-0.10687 -2.10157,0.1324 -3.14473,0.0289 -0.92153,-0.0914 -1.83879,-0.29699 -2.7104,-0.60982 -5.73502,-2.05839 1.4835,-0.35764 -4.0007,-1.50076 -0.44517,-0.43954 -0.82196,-0.96134 -1.33549,-1.31863 -1.2372,-0.86076 -2.50304,-0.7278 -3.30267,-2.23309 -0.27375,-0.51535 -0.0829,-1.16506 -0.16417,-1.74292 -0.32133,-2.28572 -0.73998,-0.99541 0.86642,-3.01996 0.019,-0.60831 8.4e-4,-1.21894 0.0571,-1.82492 0.0689,-0.73998 0.32258,-1.46352 0.31833,-2.20669 -0.004,-0.74528 -0.51439,-1.48389 -0.34353,-2.20934 0.15443,-0.65571 0.82899,-1.06209 1.23976,-1.59601 1.67527,-2.17752 0.5641,-1.64881 3.14481,-1.77005 0.36255,-0.26283 0.78717,-0.45646 1.08764,-0.78849 2.07912,-2.2975 -0.31105,-0.80715 2.40019,-3.4189 1.0291,-0.99132 3.02411,-1.75919 4.4085,-1.64149 1.01969,0.0867 1.92878,0.68477 2.89317,1.02716 0.75446,0.0879 1.50631,0.20216 2.26339,0.26359 0.23445,0.019 0.5097,0.10796 0.70529,-0.0227 1.26424,-0.8445 0.95108,-1.80769 2.7376,-1.80012 2.741472,0.0116 4.005842,1.15642 6.385472,2.45676 0.10066,0.0602 -0.74992,1.4836 -0.85057,1.42345 z"
       inkscape:connector-curvature="0" />
    <path
       style="color:#000000;clip-rule:nonzero;display:inline;overflow:visible;visibility:visible;opacity:1;isolation:auto;mix-blend-mode:normal;color-interpolation:sRGB;color-interpolation-filters:linearRGB;solid-color:#000000;solid-opacity:1;fill:none;fill-opacity:1;fill-rule:nonzero;stroke:#000000;stroke-width:3.21813941;stroke-linecap:butt;stroke-linejoin:miter;stroke-miterlimit:4;stroke-dasharray:none;stroke-dashoffset:0;stroke-opacity:0.50931672;marker:none;color-rendering:auto;image-rendering:auto;shape-rendering:auto;text-rendering:auto;enable-background:accumulate"
       id="path4229"
       d="m 101.51353,961.58289 c -0.77193,-0.37196 -1.538072,-0.7562 -2.315802,-1.11589 -0.59047,-0.27309 -1.79138,-1.10427 -2.65232,-0.7104 -0.24721,0.1131 -0.34735,0.42315 -0.55865,0.5942 -1.54764,1.25284 -1.03438,0.83476 -3.29236,0.45844 -0.36103,-0.0749 -3.26962,-0.76163 -3.89548,-0.61742 -1.46462,0.3375 -0.4975,0.86274 -1.03043,1.64518 -0.54327,0.79763 -2.0512,1.52496 -2.78021,1.94737 -1.71225,0.17217 -1.61843,-0.0399 -3.01134,0.7932 -0.19072,0.11406 -0.39412,0.2454 -0.50035,0.4406 -0.1024,0.18814 -0.007,0.43764 -0.086,0.63683 -0.57053,1.44228 -0.95346,1.54309 -2.1391,2.74683 -0.87178,0.6979 -2.19011,0.65442 -3.07938,1.33277 -0.20654,0.15756 -0.31949,1.07177 -0.30478,1.27721 0.0243,0.33937 0.16921,0.6632 0.19055,1.00277 0.0238,0.37844 -0.0374,0.75746 -0.056,1.1362 0.41997,0.90393 -0.92134,2.07052 -0.42873,2.89055 0.19771,0.32913 0.70258,0.37725 0.91898,0.6944 1.46974,2.15405 -0.85507,0.54558 1.4727,1.83803 0.75809,0.25848 0.91927,1.16481 1.52681,1.56915 0.4321,0.28758 0.95982,0.39596 1.44582,0.5782 0.63625,0.23859 1.25476,0.54716 1.92034,0.68406 2.99429,0.24262 1.56859,-0.008 4.28569,0.70238 2.83616,1.45415 0.20661,0.33416 3.05589,0.95742 0.50505,0.11048 0.95663,0.47579 1.47356,0.48392 0.61215,0.01 1.17279,-0.4281 1.785,-0.43266 4.50992,-0.0336 -1.07523,1.06402 3.18107,0.0382 0.37316,0.14261 0.72927,0.34231 1.11948,0.42783 1.29096,0.28293 2.765522,-0.30667 3.975482,-0.60429 0.6164,-0.15162 3.03301,-0.66651 3.71941,-0.81401 0.40378,-0.1717 0.80756,-0.34341 1.21133,-0.51511 0.221,-0.0305 0.45116,-0.0214 0.66301,-0.0914 0.15531,-0.0513 0.26544,-0.1947 0.41361,-0.26394 0.23444,-0.10953 0.5203,-0.11518 0.72803,-0.26948 0.34516,-0.25639 0.50841,-0.73627 0.89076,-0.93295 0.3621,-0.18627 0.80833,-0.0993 1.21249,-0.14899 0.20964,-0.30274 0.41928,-0.60548 0.62892,-0.90822 0.006,-0.0668 -0.0107,-0.13931 0.0168,-0.20051 0.047,-0.10488 0.16811,-0.17076 0.19929,-0.2814 0.0513,-0.18214 -0.0485,-0.39881 0.0396,-0.56633 0.14392,-0.27389 0.43949,-0.43935 0.62068,-0.69015 0.17059,-0.23614 0.28551,-0.50789 0.42827,-0.76183 0.10651,-0.48778 0.35316,-1.25605 0.12025,-1.75891 -0.1935,-0.41775 -0.59979,-0.69989 -0.87092,-1.07198 -3.37014,-4.62496 1.72409,2.11555 -2.04052,-3.1858 -0.43042,-0.60612 -0.92979,-1.1602 -1.39469,-1.7403 -0.27408,-0.72801 -0.33128,-1.58063 -0.82222,-2.18402 -0.46605,-0.57279 -1.28452,-0.73249 -1.89216,-1.15209 -0.53088,-0.36659 -0.94328,-0.90683 -1.51694,-1.20201 -0.61401,-0.31595 -1.31815,-0.41278 -1.9831,-0.59899 -2.610002,-0.7309 -2.437022,-0.63203 -5.297142,-1.18644 -3.35455,-0.56927 -3.75285,-0.82405 -7.24595,-0.62754 -1.25142,0.0704 -2.48789,0.30718 -3.73184,0.46077 -0.0542,-4.1e-4 -0.0455,-0.76738 0.009,-0.76676 l 0,0 c 1.28496,-0.22615 2.55636,-0.55154 3.85488,-0.67845 3.11424,-0.30438 4.43861,-0.0222 7.4855,0.28847 2.29829,0.4131 5.652592,0.82209 7.736542,1.94909 2.02597,1.09564 3.24663,3.08921 4.79738,4.70233 3.73668,3.5551 0.0281,-0.57945 2.11343,3.77797 0.27132,0.56693 0.90068,0.88514 1.26983,1.39382 0.6475,0.89225 1.0867,1.76069 0.95578,2.89103 -0.0442,0.3814 -0.28832,0.71173 -0.43247,1.06759 -0.10973,0.2689 -0.17433,0.56101 -0.32919,0.8067 -0.17922,0.28435 -0.73387,0.55885 -0.81596,0.93468 -0.0537,0.24587 0.17007,0.51391 0.0838,0.75033 -0.45427,1.24528 -0.71651,1.02001 -1.77279,1.15548 -0.32466,0.32539 -0.62015,0.68276 -0.97397,0.97616 -1.01265,0.83969 -0.70182,0.37523 -1.61909,0.96027 -0.19635,0.12524 -0.33118,0.3488 -0.54831,0.43302 -0.25205,0.0978 -0.55673,-0.0129 -0.8058,0.0922 -0.44641,0.18845 -0.82253,0.5125 -1.23379,0.76876 -0.6126,0.0906 -1.22377,0.19141 -1.83778,0.27186 -0.6727,0.0881 -1.36826,0.052 -2.02189,0.23382 -0.63616,0.17699 -1.14782,0.72015 -1.799082,0.8292 -4.82924,0.8086 1.643302,-1.09995 -2.31032,-0.71633 -0.46834,0.0454 -0.84297,0.41836 -1.26446,0.62754 -1.28835,-0.17805 -1.839,-0.28487 -3.18473,-0.3309 -0.59535,-0.0204 -1.1948,0.0736 -1.78708,0.01 -0.5337,-0.0575 -1.03339,-0.31299 -1.56702,-0.37099 -0.54421,-0.0592 -1.1036,0.12064 -1.64208,0.0222 -0.56054,-0.10248 -1.06359,-0.40937 -1.59539,-0.61406 -3.97068,0.17211 -0.58428,0.45661 -4.22903,-1.20407 -0.67381,-0.30702 -1.4436,-0.3425 -2.14205,-0.58835 -1.71705,-0.60439 -2.195,-1.09168 -3.23101,-2.48254 -0.86772,-0.65531 -1.26715,-0.83214 -1.84676,-1.83977 -0.23538,-0.40921 -0.31066,-0.89354 -0.51273,-1.32019 -0.20005,-0.4224 -0.69088,-0.75295 -0.69049,-1.22033 8.4e-4,-0.67091 1.22476,-0.9663 0.88353,-1.80845 -0.0499,-0.72341 -0.14214,-1.44406 -0.17221,-2.16857 -0.0195,-0.46959 -0.20036,-0.98383 -0.002,-1.40999 0.2304,-0.49541 0.7633,-0.78499 1.18475,-1.13268 1.26474,-1.04338 1.27185,-0.91202 2.76451,-1.49482 0.29065,-0.17922 0.65054,-0.27769 0.87194,-0.53765 0.27453,-0.32237 0.35411,-0.77004 0.55784,-1.14123 0.26691,-0.48631 0.50399,-0.99778 0.85287,-1.42909 0.81984,-1.01359 1.15561,-0.87713 2.37587,-1.21145 0.48974,-0.13418 0.97822,-0.27294 1.46733,-0.4094 0.31166,-0.0136 0.65834,0.10331 0.93496,-0.0409 0.36034,-0.18785 0.58424,-0.5678 0.83937,-0.8841 0.46062,-0.57104 1.68557,-2.58614 2.44014,-2.83748 0.63036,-0.20997 1.31461,0.1973 1.97565,0.26411 0.74297,0.0751 1.48964,0.10759 2.23445,0.16139 0.76488,0.25464 1.53481,0.72754 2.37211,0.42104 0.92354,-0.33806 1.25913,-1.21837 2.455,-0.99924 0.65546,0.1201 3.780312,2.19789 4.129762,2.42062 0.0512,0.0421 -0.54438,0.76686 -0.59564,0.72474 z"
       inkscape:connector-curvature="0" />
    <path
       style="color:#000000;clip-rule:nonzero;display:inline;overflow:visible;visibility:visible;opacity:1;isolation:auto;mix-blend-mode:normal;color-interpolation:sRGB;color-interpolation-filters:linearRGB;solid-color:#000000;solid-opacity:1;fill:none;fill-opacity:1;fill-rule:nonzero;stroke:#000000;stroke-width:3.21813941;stroke-linecap:butt;stroke-linejoin:miter;stroke-miterlimit:4;stroke-dasharray:none;stroke-dashoffset:0;stroke-opacity:0.50931672;marker:none;color-rendering:auto;image-rendering:auto;shape-rendering:auto;text-rendering:auto;enable-background:accumulate"
       id="path4235"
       d="m 47.727758,996.53102 c 0.69988,1.34652 1.52055,2.63684 2.09963,4.03958 0.61669,1.4938 0.86773,3.1208 1.4747,4.6186 0.45785,1.1299 1.24117,2.1079 1.70757,3.2343 0.33087,0.7991 0.35219,1.7023 0.66957,2.5068 0.29769,0.7547 0.77514,1.4255 1.16271,2.1382 0.36091,0.9615 0.72181,1.9231 1.08272,2.8846 0.945,2.0582 1.97945,3.9383 2.38743,6.1956 0.12782,0.7072 -8.3e-4,1.4375 0.0127,2.1561 0.008,0.4032 0.13213,0.8139 0.0501,1.2087 -0.0774,0.3726 -0.36069,0.671 -0.51307,1.0197 -0.14109,0.3228 -0.24397,0.661 -0.36595,0.9915 0.41385,0.5905 -0.057,1.4929 0.30525,2.1007 0.0851,0.1428 0.63704,0.013 0.49033,0.091 -1.1026,0.587 -0.92357,0.1287 -1.02113,-0.5749 -0.002,-0 0.0488,-0.032 0.0508,-0.028 l 0,0 c 0.14812,0.1818 0.37523,0.3212 0.44436,0.5452 0.138,0.4472 -0.36045,0.7669 -0.66205,0.254 -0.27899,-0.4744 -0.28693,-1.999 -0.31043,-2.4431 0.071,-0.4023 0.14209,-0.8047 0.21314,-1.2071 0.15712,-0.2643 0.39708,-0.4944 0.47137,-0.7927 0.0707,-0.2839 -0.0423,-0.5837 -0.0559,-0.876 -0.0312,-0.6728 0.12674,-1.3775 -0.0784,-2.0191 -0.31296,-0.9787 -0.9593,-1.8175 -1.43895,-2.7263 -0.34952,-1.1299 -0.69905,-2.26 -1.04857,-3.39 -0.38097,-0.9401 -0.77906,-1.8733 -1.14291,-2.8201 -0.28866,-0.7512 -0.47645,-1.5423 -0.81421,-2.2727 -0.35768,-0.7734 -0.88558,-1.4585 -1.26429,-2.2219 -0.5503,-1.1092 -0.99508,-2.268 -1.51968,-3.3896 -2.87104,-6.13852 -1.68316,-2.4614 -3.13915,-8.91926 -0.0214,-0.0532 0.73077,-0.35635 0.75221,-0.30317 z"
       inkscape:connector-curvature="0" />
    <path
       style="color:#000000;clip-rule:nonzero;display:inline;overflow:visible;visibility:visible;opacity:1;isolation:auto;mix-blend-mode:normal;color-interpolation:sRGB;color-interpolation-filters:linearRGB;solid-color:#000000;solid-opacity:1;fill:none;fill-opacity:1;fill-rule:nonzero;stroke:#000000;stroke-width:3.21813941;stroke-linecap:butt;stroke-linejoin:miter;stroke-miterlimit:4;stroke-dasharray:none;stroke-dashoffset:0;stroke-opacity:0.50931672;marker:none;color-rendering:auto;image-rendering:auto;shape-rendering:auto;text-rendering:auto;enable-background:accumulate"
       id="path4237"
       d="m 47.401508,993.97472 c 2.44257,8.96078 -0.2666,0.549 4.0346,9.59438 0.69281,1.4569 0.94755,3.1073 1.7181,4.5246 0.60736,1.1172 1.76553,1.8712 2.36781,2.9911 0.53696,0.9985 0.64594,2.1736 0.99049,3.2537 0.3337,1.046 0.69606,2.0828 1.0441,3.1242 0.12333,3.5218 0.0118,2.534 0.36735,5.6104 0.004,0.038 0.24204,1.5679 0.19964,1.9038 -0.23298,1.8457 -0.33619,-0.5063 -0.0895,1.9142 -0.62035,4.1073 0.1883,-0.866 -0.5537,2.7019 -0.034,0.1638 0.1298,0.4458 -0.028,0.501 -0.1695,0.059 -0.27485,-0.2312 -0.41228,-0.3468 0.002,0 -0.0508,0.028 -0.0525,0.025 l 0,0 c -0.003,0.088 0.0549,0.3249 -0.007,0.2631 -0.10618,-0.1054 -0.15999,-0.2725 -0.15276,-0.4219 0.0195,-0.4032 0.15378,-0.7926 0.23067,-1.1888 0.01,-0.4849 0.0191,-0.9698 0.0288,-1.4547 -0.004,-0.2729 0.0454,-1.271 -0.1291,-1.6587 -0.0991,-0.2202 -0.35208,-0.362 -0.41209,-0.5959 -0.11215,-0.4371 -0.0586,-0.9007 -0.0874,-1.3511 -0.21315,-3.339 -0.12247,-1.6718 -0.274,-5.4731 -0.29151,-0.9755 -0.50951,-1.976 -0.87452,-2.9264 -0.37653,-0.9804 -0.90435,-1.8959 -1.34382,-2.8498 -0.5415,-1.1753 -1.00569,-2.3875 -1.59899,-3.5375 -0.75174,-1.4571 -1.70919,-2.8039 -2.4319,-4.2756 -1.99565,-4.0641 -2.40793,-5.7608 -3.78538,-9.93243 -0.0279,-0.0885 1.22406,-0.48262 1.25193,-0.3941 z"
       inkscape:connector-curvature="0" />
    <path
       style="color:#000000;clip-rule:nonzero;display:inline;overflow:visible;visibility:visible;opacity:1;isolation:auto;mix-blend-mode:normal;color-interpolation:sRGB;color-interpolation-filters:linearRGB;solid-color:#000000;solid-opacity:1;fill:none;fill-opacity:1;fill-rule:nonzero;stroke:#000000;stroke-width:3.21813941;stroke-linecap:butt;stroke-linejoin:miter;stroke-miterlimit:4;stroke-dasharray:none;stroke-dashoffset:0;stroke-opacity:0.50931672;marker:none;color-rendering:auto;image-rendering:auto;shape-rendering:auto;text-rendering:auto;enable-background:accumulate"
       id="path4245"
       d="m 47.810068,994.15466 c 0.35445,1.00693 0.59807,2.06003 1.06335,3.02078 0.46462,0.95934 1.19141,1.77101 1.70868,2.70301 0.38207,0.68835 0.698,1.41365 0.98342,2.14745 0.82688,2.1257 0.19139,1.4594 1.24265,3.6838 0.45769,0.9685 1.02646,1.8805 1.53969,2.8207 0.36814,0.8029 3.07341,6.5925 3.29229,7.5045 0.24587,1.0243 0.17301,2.1088 0.09,3.159 -0.10885,1.3773 -0.63587,2.0113 -0.89425,3.2717 -0.0858,0.4187 -0.0871,0.8503 -0.13071,1.2754 1.00681,3.8491 -0.0884,-0.5597 0.76122,3.6556 0.33697,1.672 0.66083,0.9054 -0.12076,1.9438 -10e-4,0.01 -0.10673,-0.01 -0.10557,-0.016 l 0,0 c 0.22083,-0.9195 0.14347,-0.2264 -0.33718,-1.7043 -1.11971,-3.4429 0.0152,-0.3933 -1.32179,-3.8125 0.15594,-0.5011 0.29579,-1.0074 0.46781,-1.5032 0.25526,-0.7358 0.96186,-2.1899 0.92635,-2.9044 -0.0475,-0.9557 -0.43732,-1.8638 -0.69889,-2.7842 -1.31743,-4.6357 -0.83192,-3.1696 -3.10995,-7.4752 -0.29924,-1.0544 -0.4862,-2.1474 -0.89769,-3.1633 -0.26603,-0.6568 -0.80653,-1.1718 -1.11641,-1.8091 -0.25516,-0.5247 -0.3378,-1.1195 -0.56835,-1.6555 -0.30426,-0.7074 -0.7489,-1.3506 -1.0326,-2.0664 -0.3977,-1.00353 -0.57373,-2.08903 -1.0062,-3.07804 -0.41752,-0.95484 -1.02104,-1.81705 -1.53155,-2.72558 -0.0345,-0.0563 0.76194,-0.54405 0.79643,-0.48774 z"
       inkscape:connector-curvature="0" />
  </g>
</svg>
